<svg version="1.1" xmlns="http://www.w3.org/2000/svg" x="0" y="0" viewBox="0 0 300 200" xml:space="preserve">
  <style>
    .st1{fill:#fc0}
  </style>
  <path id="_x31_3" fill="#039" d="M0 0h300v200H0z"/>
  <path id="_x31_2" class="st1" d="M150 23.34l-2.46 7.63h-8.1l6.58 4.75-2.53 7.62 6.51-4.73 6.51 4.73-2.49-7.68 6.54-4.65h-8.07z"/>
  <path id="_x31_1" class="st1" d="M116.64 32.26l-2.46 7.63h-8.09l6.57 4.74-2.52 7.63 6.5-4.74 6.51 4.74-2.49-7.69 6.54-4.65h-8.06z"/>
  <path id="_x31_0" class="st1" d="M183.36 32.26l-2.46 7.63h-8.1l6.57 4.74-2.52 7.63 6.51-4.74 6.5 4.74-2.49-7.69 6.54-4.65h-8.06z"/>
  <path id="_x39_" class="st1" d="M92.25 56.7l-2.47 7.63h-8.09l6.57 4.75-2.52 7.62 6.51-4.74 6.5 4.74-2.49-7.69 6.54-4.65h-8.06z"/>
  <path id="_x38_" class="st1" d="M207.73 56.7l-2.46 7.63h-8.09l6.57 4.75-2.53 7.62 6.51-4.74 6.51 4.74-2.49-7.69 6.54-4.65h-8.07z"/>
  <path id="_x37_" class="st1" d="M83.26 89.99l-2.46 7.63h-8.09l6.57 4.75-2.52 7.62 6.5-4.74 6.51 4.74-2.49-7.69 6.54-4.65h-8.06z"/>
  <path id="_x36_" class="st1" d="M216.74 89.99l-2.47 7.63h-8.09l6.57 4.75-2.52 7.62 6.51-4.74 6.5 4.74-2.49-7.69 6.54-4.65h-8.06z"/>
  <path id="_x35_" class="st1" d="M207.73 123.25l-2.46 7.63h-8.09l6.57 4.75-2.53 7.62 6.51-4.73 6.51 4.73-2.49-7.69 6.54-4.65h-8.07z"/>
  <path id="_x34_" class="st1" d="M92.25 123.25l-2.47 7.63h-8.09l6.57 4.75-2.52 7.62 6.51-4.73 6.5 4.73-2.49-7.69 6.54-4.65h-8.06z"/>
  <path id="_x33_" class="st1" d="M116.64 147.77l-2.46 7.63h-8.09l6.57 4.74-2.52 7.63 6.5-4.74 6.51 4.74-2.49-7.69 6.54-4.65h-8.06z"/>
  <path id="_x32__1_" class="st1" d="M183.36 147.77l-2.46 7.63h-8.1l6.57 4.74-2.52 7.63 6.51-4.74 6.5 4.74-2.49-7.69 6.54-4.65h-8.06z"/>
  <path id="_x31_" class="st1" d="M150 156.66l-2.46 7.62h-8.1l6.58 4.75-2.53 7.63 6.51-4.74 6.51 4.74-2.49-7.69 6.54-4.65h-8.07z"/>
</svg>
